<svg xmlns="http://www.w3.org/2000/svg" viewBox="0 0 186.37 186.37"><circle cx="93.18" cy="93.18" r="93.18" fill="#232323"/><path fill="#f7f6ee" d="M134.57 83.13c-1.61.19-7.65 2.75-10.89 2.01-3.24-.75-4.03-3.95-3.96-6.46.07-2.51 2.52-12.28 1.98-13.07-.53-.79-13.43-2.83-15.32-3.27-1.88-.44-7.95.54-3.66 9.6 4.3 9.06-4.39 12.98-7.93 13.95-.53.15-1.23.17-2.01.12v-.02C87.59 86 81.7 82.6 82.8 77.3c1.31-6.37 6.85-16.88-6-14.63-12.87 2.24-13.36 2.82-13.63 2.84-.26.01 1.8 10.4 2.26 12.97.66 3.66-1.12 5.8-2.89 6.92-.23.2-.48.35-.75.48s-.56.23-.87.3c-.01 0-.03.01-.04.02-.31.1-.75.14-1.27.13h-.21c-.07 0-.13 0-.2-.01-.33-.01-.67-.04-1.02-.08-2.96-.31-7.08-1.31-8.35-1.35-1.77-.06-8.02 1.47-8.19 10.02-.03 1.31.13 2.44.41 3.4 1.56 5.27 7.09 5.6 8.45 5.44.85-.1 2.91-.85 5.14-1.44 2.03-.53 4.2-.92 5.75-.57 3.08.71 3.95 3.63 3.96 6.08v.38c-.07 2.51-2.52 12.28-1.98 13.07.53.79 13.43 2.83 15.32 3.27.51.12 1.32.13 2.16-.09 2.25-.59 4.64-2.9 1.5-9.51-3-6.32.31-10.13 3.79-12.19 1.51-.9 3.06-1.46 4.14-1.76.53-.14 1.23-.17 2.01-.11v.02c5.19-.01 11.09 3.38 9.99 8.67-.35 1.69-.99 3.68-1.52 5.64-.49 2.52-.95 5.26-.6 6.37.1.3.23.64.4.98.95 1.64 3.19 2.43 7.72 1.64 12.86-2.24 13.36-2.82 13.62-2.84.27-.02-1.8-10.41-2.26-12.97-.87-4.88 2.58-7.05 4.57-7.72 2-.66 9.28 1.25 11.05 1.31 1.76.06 8.02-1.48 8.19-10.01.16-8.53-7.27-9.04-8.88-8.84z"/></svg>