<svg xmlns="http://www.w3.org/2000/svg" viewBox="0 0 187 187"><g fill="none" fill-rule="evenodd"><circle cx="93.18" cy="93.18" r="93.18" fill="#232323"/><path fill="#F7F6EE" d="M107.87 75.24c-10.82-2.19-14.68 5.39-14.68 5.39s-3.01-5.76-10.92-5.83c-7.91-.07-11.15 5.37-11.09 11.14 0 6.16 2.88 17.88 22.01 29.64 17.8-10.68 21.01-22.39 21.4-24.47.4-2.08 2.98-12.95-6.72-15.87z"/><path fill="#F7F6EE" fill-rule="nonzero" stroke="#F7F6EE" stroke-linecap="round" stroke-width="5" d="M93.18 35.47v18.45m0 80.56v18.45m58.73-58.73h-18.45m-80.55 0H34.46m100.25-41.53l-13.04 13.05M64.7 122.68l-13.04 13.05m83.05 0l-13.04-13.05M64.7 65.72L51.66 52.67"/></g></svg>